<svg width="200" height="200" viewBox="0 0 200 200" fill="none" xmlns="http://www.w3.org/2000/svg">
<path d="M100 175.69C85.0299 175.69 70.396 171.251 57.9489 162.934C45.5017 154.617 35.8004 142.796 30.0716 128.965C24.3428 115.135 22.8438 99.916 25.7644 85.2336C28.6849 70.5512 35.8937 57.0645 46.4791 46.4791C57.0645 35.8937 70.5512 28.6849 85.2336 25.7644C99.916 22.8438 115.135 24.3428 128.965 30.0716C142.796 35.8004 154.617 45.5017 162.934 57.9489C171.251 70.396 175.69 85.0299 175.69 100C175.666 120.067 167.684 139.305 153.495 153.495C139.305 167.684 120.067 175.666 100 175.69V175.69ZM100 34.31C87.0077 34.31 74.3073 38.1627 63.5046 45.3808C52.7019 52.5989 44.2823 62.8582 39.3104 74.8615C34.3384 86.8648 33.0376 100.073 35.5722 112.815C38.1069 125.558 44.3632 137.263 53.5502 146.45C62.7371 155.637 74.4419 161.893 87.1845 164.428C99.9271 166.962 113.135 165.662 125.138 160.69C137.142 155.718 147.401 147.298 154.619 136.495C161.837 125.693 165.69 112.992 165.69 100C165.669 82.5844 158.741 65.8882 146.426 53.5735C134.112 41.2589 117.416 34.3312 100 34.31V34.31Z" fill="white"/>
<path d="M100 175.69C80.51 175.69 70 136.69 70 100C70 63.31 80.51 24.31 100 24.31C119.49 24.31 130 63.31 130 100C130 136.69 119.49 175.69 100 175.69ZM100 34.31C91.85 34.31 80 59.9 80 100C80 118.33 82.5 135.49 87 148.32C90.73 158.87 95.82 165.69 100 165.69C108.15 165.69 120 140.1 120 100C120 81.67 117.5 64.51 113 51.68C109.23 41.13 104.14 34.31 100 34.31Z" fill="white"/>
<path d="M170.69 105H29.31C27.9839 105 26.7121 104.473 25.7745 103.536C24.8368 102.598 24.31 101.326 24.31 100C24.31 98.6739 24.8368 97.4021 25.7745 96.4645C26.7121 95.5268 27.9839 95 29.31 95H170.69C172.016 95 173.288 95.5268 174.226 96.4645C175.163 97.4021 175.69 98.6739 175.69 100C175.69 101.326 175.163 102.598 174.226 103.536C173.288 104.473 172.016 105 170.69 105Z" fill="white"/>
<path d="M163.05 73H37C35.6739 73 34.4021 72.4732 33.4645 71.5355C32.5268 70.5979 32 69.3261 32 68C32 66.6739 32.5268 65.4021 33.4645 64.4645C34.4021 63.5268 35.6739 63 37 63H163.1C164.426 63 165.698 63.5268 166.636 64.4645C167.573 65.4021 168.1 66.6739 168.1 68C168.1 69.3261 167.573 70.5979 166.636 71.5355C165.698 72.4732 164.426 73 163.1 73H163.05Z" fill="white"/>
<path d="M163.05 137H37C35.6739 137 34.4021 136.473 33.4645 135.536C32.5268 134.598 32 133.326 32 132C32 130.674 32.5268 129.402 33.4645 128.464C34.4021 127.527 35.6739 127 37 127H163.1C164.426 127 165.698 127.527 166.636 128.464C167.573 129.402 168.1 130.674 168.1 132C168.1 133.326 167.573 134.598 166.636 135.536C165.698 136.473 164.426 137 163.1 137H163.05Z" fill="white"/>
</svg>
